<svg xmlns="http://www.w3.org/2000/svg" xmlns:xlink="http://www.w3.org/1999/xlink" width="300" zoomAndPan="magnify" viewBox="0 0 224.87999 225" height="300" preserveAspectRatio="xMidYMid meet" version="1.0"><path fill="#83411a" d="M 187.25 138.59375 C 190.09375 134.558594 191.769531 129.660156 191.769531 124.378906 C 191.769531 110.75 180.621094 99.597656 166.996094 99.597656 L 164.757812 99.597656 C 167.027344 96.003906 168.34375 91.753906 168.34375 87.207031 C 168.34375 74.355469 157.832031 63.839844 144.980469 63.839844 L 135.648438 63.839844 C 143.859375 53.601562 145.023438 36.808594 133.222656 28.410156 C 120.582031 43.746094 104.945312 38.121094 94.976562 41.195312 C 87.96875 42.476562 82.648438 48.613281 82.648438 56 C 82.648438 58.417969 83.226562 60.703125 84.238281 62.734375 C 84.378906 63.117188 84.550781 63.484375 84.738281 63.839844 L 79.617188 63.839844 C 66.769531 63.839844 56.253906 74.355469 56.253906 87.207031 C 56.253906 91.753906 57.574219 96.003906 59.84375 99.597656 L 57.601562 99.597656 C 43.976562 99.597656 32.828125 110.75 32.828125 124.378906 C 32.828125 129.660156 34.507812 134.558594 37.347656 138.59375 C 22.46875 141.015625 11.011719 154.011719 11.011719 169.550781 C 11.015625 186.804688 25.125 200.917969 42.371094 200.917969 L 182.226562 200.917969 C 199.472656 200.917969 213.585938 186.804688 213.585938 169.550781 C 213.585938 154.011719 202.132812 141.015625 187.25 138.59375 " fill-opacity="1" fill-rule="nonzero"/><path fill="#ffffff" d="M 101.242188 123.035156 C 101.242188 134.144531 92.246094 143.144531 81.140625 143.144531 C 70.042969 143.144531 61.042969 134.144531 61.042969 123.035156 C 61.042969 111.933594 70.042969 102.933594 81.140625 102.933594 C 92.246094 102.933594 101.242188 111.933594 101.242188 123.035156 " fill-opacity="1" fill-rule="nonzero"/><path fill="#0f0e0c" d="M 81.140625 104.296875 C 70.808594 104.296875 62.410156 112.707031 62.410156 123.035156 C 62.410156 133.375 70.808594 141.78125 81.140625 141.78125 C 91.476562 141.78125 99.878906 133.375 99.878906 123.035156 C 99.878906 112.707031 91.476562 104.296875 81.140625 104.296875 Z M 81.140625 144.507812 C 69.308594 144.507812 59.679688 134.875 59.679688 123.035156 C 59.679688 111.199219 69.308594 101.566406 81.140625 101.566406 C 92.976562 101.566406 102.605469 111.199219 102.605469 123.035156 C 102.605469 134.875 92.976562 144.507812 81.140625 144.507812 " fill-opacity="1" fill-rule="nonzero"/><path fill="#ffffff" d="M 163.554688 123.097656 C 163.554688 134.203125 154.554688 143.207031 143.453125 143.207031 C 132.355469 143.207031 123.351562 134.203125 123.351562 123.097656 C 123.351562 111.996094 132.355469 102.988281 143.453125 102.988281 C 154.554688 102.988281 163.554688 111.996094 163.554688 123.097656 " fill-opacity="1" fill-rule="nonzero"/><path fill="#0f0e0c" d="M 143.453125 104.355469 C 133.125 104.355469 124.71875 112.761719 124.71875 123.097656 C 124.71875 133.433594 133.125 141.839844 143.453125 141.839844 C 153.785156 141.839844 162.191406 133.433594 162.191406 123.097656 C 162.191406 112.761719 153.785156 104.355469 143.453125 104.355469 Z M 143.453125 144.570312 C 131.617188 144.570312 121.988281 134.9375 121.988281 123.097656 C 121.988281 111.257812 131.617188 101.625 143.453125 101.625 C 155.289062 101.625 164.921875 111.257812 164.921875 123.097656 C 164.921875 134.9375 155.289062 144.570312 143.453125 144.570312 " fill-opacity="1" fill-rule="nonzero"/><path fill="#0f0e0c" d="M 81.394531 116.3125 C 80.769531 116.3125 80.164062 116.40625 79.59375 116.566406 C 80.34375 117.015625 80.855469 117.832031 80.855469 118.769531 C 80.855469 120.1875 79.707031 121.339844 78.289062 121.339844 C 77.109375 121.339844 76.121094 120.535156 75.824219 119.445312 C 75.21875 120.4375 74.863281 121.597656 74.863281 122.847656 C 74.863281 126.453125 77.785156 129.382812 81.394531 129.382812 C 85 129.382812 87.925781 126.453125 87.925781 122.847656 C 87.925781 119.234375 85 116.3125 81.394531 116.3125 " fill-opacity="1" fill-rule="nonzero"/><path fill="#0f0e0c" d="M 143.703125 116.8125 C 143.078125 116.8125 142.476562 116.910156 141.902344 117.074219 C 142.65625 117.519531 143.164062 118.332031 143.164062 119.273438 C 143.164062 120.691406 142.019531 121.84375 140.597656 121.84375 C 139.417969 121.84375 138.429688 121.035156 138.136719 119.945312 C 137.527344 120.9375 137.171875 122.101562 137.171875 123.347656 C 137.171875 126.957031 140.097656 129.882812 143.703125 129.882812 C 147.316406 129.882812 150.238281 126.957031 150.238281 123.347656 C 150.238281 119.742188 147.316406 116.8125 143.703125 116.8125 " fill-opacity="1" fill-rule="nonzero"/><path fill="#0f0e0c" d="M 134.160156 172.335938 C 133.402344 172.335938 132.792969 171.726562 132.792969 170.972656 C 132.792969 164.617188 130.589844 159.296875 126.417969 155.59375 C 122.703125 152.289062 117.691406 150.472656 112.296875 150.472656 C 102.425781 150.472656 91.804688 156.890625 91.804688 170.972656 C 91.804688 171.726562 91.195312 172.335938 90.441406 172.335938 C 89.6875 172.335938 89.078125 171.726562 89.078125 170.972656 C 89.078125 155.011719 101.109375 147.742188 112.296875 147.742188 C 123.484375 147.742188 135.523438 155.011719 135.523438 170.972656 C 135.523438 171.726562 134.910156 172.335938 134.160156 172.335938 " fill-opacity="1" fill-rule="nonzero"/><path fill="#4e2e57" d="M 61.09375 124.460938 L 96.082031 109.59375 C 90.503906 103.382812 81.394531 101.089844 73.285156 104.535156 C 65.171875 107.984375 60.503906 116.132812 61.09375 124.460938 " fill-opacity="1" fill-rule="nonzero"/><path fill="#0f0e0c" d="M 81.136719 104.300781 C 78.671875 104.300781 76.183594 104.785156 73.820312 105.792969 C 67.058594 108.664062 62.652344 115.191406 62.417969 122.417969 L 93.691406 109.125 C 90.203125 105.976562 85.710938 104.300781 81.136719 104.300781 Z M 61.09375 125.828125 C 60.847656 125.828125 60.597656 125.761719 60.382812 125.625 C 60.003906 125.398438 59.761719 124.996094 59.730469 124.558594 C 59.082031 115.414062 64.316406 106.863281 72.75 103.28125 C 81.183594 99.695312 90.96875 101.867188 97.097656 108.679688 C 97.390625 109.011719 97.507812 109.457031 97.417969 109.886719 C 97.320312 110.320312 97.023438 110.679688 96.617188 110.847656 L 61.628906 125.71875 C 61.457031 125.792969 61.273438 125.828125 61.09375 125.828125 " fill-opacity="1" fill-rule="nonzero"/><path fill="#4e2e57" d="M 130.273438 107.921875 L 163.179688 126.964844 C 164.785156 118.769531 161.152344 110.109375 153.523438 105.691406 C 145.890625 101.277344 136.570312 102.445312 130.273438 107.921875 " fill-opacity="1" fill-rule="nonzero"/><path fill="#0f0e0c" d="M 132.703125 107.75 L 162.117188 124.769531 C 162.765625 117.566406 159.195312 110.554688 152.839844 106.878906 C 146.480469 103.195312 138.621094 103.601562 132.703125 107.75 Z M 163.179688 128.328125 C 162.945312 128.328125 162.710938 128.265625 162.5 128.144531 L 129.585938 109.101562 C 129.210938 108.882812 128.957031 108.492188 128.914062 108.054688 C 128.871094 107.613281 129.046875 107.179688 129.375 106.890625 C 136.296875 100.878906 146.277344 99.921875 154.203125 104.511719 C 162.132812 109.101562 166.28125 118.230469 164.519531 127.226562 C 164.433594 127.660156 164.148438 128.027344 163.746094 128.207031 C 163.566406 128.289062 163.371094 128.328125 163.179688 128.328125 " fill-opacity="1" fill-rule="nonzero"/></svg>