<svg xmlns="http://www.w3.org/2000/svg" xmlns:xlink="http://www.w3.org/1999/xlink" width="300" zoomAndPan="magnify" viewBox="0 0 224.87999 225" height="300" preserveAspectRatio="xMidYMid meet" version="1.0"><defs><clipPath id="43abd234b3"><path d="M 22.488281 16.847656 L 194 16.847656 L 194 202.75 L 22.488281 202.75 Z M 22.488281 16.847656 " clip-rule="nonzero"/></clipPath><clipPath id="47a27a46b0"><path d="M 110 16.847656 L 198.644531 16.847656 L 198.644531 167 L 110 167 Z M 110 16.847656 " clip-rule="nonzero"/></clipPath><clipPath id="17eb30300d"><path d="M 108 16.847656 L 198.644531 16.847656 L 198.644531 168 L 108 168 Z M 108 16.847656 " clip-rule="nonzero"/></clipPath><clipPath id="ff836af261"><path d="M 139 65 L 170 65 L 170 118 L 139 118 Z M 139 65 " clip-rule="nonzero"/></clipPath><clipPath id="c1189e80c7"><path d="M 169.660156 91.703125 C 169.660156 92.546875 169.636719 93.390625 169.585938 94.234375 C 169.539062 95.074219 169.464844 95.910156 169.367188 96.738281 C 169.269531 97.566406 169.152344 98.386719 169.007812 99.195312 C 168.859375 100.003906 168.695312 100.796875 168.503906 101.578125 C 168.3125 102.359375 168.097656 103.125 167.863281 103.867188 C 167.628906 104.613281 167.375 105.339844 167.097656 106.039062 C 166.820312 106.742188 166.523438 107.421875 166.207031 108.074219 C 165.890625 108.730469 165.558594 109.355469 165.203125 109.953125 C 164.851562 110.550781 164.484375 111.117188 164.097656 111.652344 C 163.714844 112.1875 163.3125 112.691406 162.898438 113.160156 C 162.484375 113.628906 162.058594 114.066406 161.617188 114.464844 C 161.179688 114.863281 160.730469 115.222656 160.269531 115.546875 C 159.808594 115.871094 159.339844 116.152344 158.863281 116.398438 C 158.386719 116.644531 157.902344 116.851562 157.414062 117.015625 C 156.925781 117.179688 156.433594 117.304688 155.9375 117.386719 C 155.441406 117.46875 154.945312 117.511719 154.445312 117.511719 C 153.949219 117.511719 153.449219 117.46875 152.953125 117.386719 C 152.460938 117.304688 151.964844 117.179688 151.476562 117.015625 C 150.988281 116.851562 150.507812 116.644531 150.03125 116.398438 C 149.554688 116.152344 149.085938 115.871094 148.625 115.546875 C 148.164062 115.222656 147.714844 114.863281 147.273438 114.464844 C 146.835938 114.066406 146.40625 113.628906 145.992188 113.160156 C 145.578125 112.691406 145.179688 112.1875 144.792969 111.652344 C 144.410156 111.117188 144.039062 110.550781 143.6875 109.953125 C 143.335938 109.355469 143 108.730469 142.683594 108.074219 C 142.367188 107.421875 142.074219 106.742188 141.796875 106.039062 C 141.519531 105.339844 141.261719 104.613281 141.027344 103.867188 C 140.792969 103.125 140.582031 102.359375 140.390625 101.578125 C 140.199219 100.796875 140.03125 100.003906 139.886719 99.195312 C 139.742188 98.386719 139.621094 97.566406 139.523438 96.738281 C 139.425781 95.910156 139.355469 95.074219 139.304688 94.234375 C 139.257812 93.390625 139.230469 92.546875 139.230469 91.703125 C 139.230469 90.859375 139.257812 90.015625 139.304688 89.171875 C 139.355469 88.332031 139.425781 87.496094 139.523438 86.667969 C 139.621094 85.839844 139.742188 85.019531 139.886719 84.210938 C 140.03125 83.402344 140.199219 82.609375 140.390625 81.828125 C 140.582031 81.046875 140.792969 80.28125 141.027344 79.539062 C 141.261719 78.792969 141.519531 78.066406 141.796875 77.367188 C 142.074219 76.664062 142.367188 75.984375 142.683594 75.332031 C 143 74.679688 143.335938 74.050781 143.6875 73.453125 C 144.039062 72.855469 144.410156 72.289062 144.792969 71.753906 C 145.179688 71.21875 145.578125 70.714844 145.992188 70.246094 C 146.40625 69.777344 146.835938 69.339844 147.273438 68.941406 C 147.714844 68.542969 148.164062 68.183594 148.625 67.859375 C 149.085938 67.535156 149.554688 67.253906 150.03125 67.007812 C 150.507812 66.761719 150.988281 66.554688 151.476562 66.390625 C 151.964844 66.226562 152.460938 66.101562 152.953125 66.019531 C 153.449219 65.9375 153.949219 65.894531 154.445312 65.894531 C 154.945312 65.894531 155.441406 65.9375 155.9375 66.019531 C 156.433594 66.101562 156.925781 66.226562 157.414062 66.390625 C 157.902344 66.554688 158.386719 66.761719 158.863281 67.007812 C 159.339844 67.253906 159.808594 67.535156 160.269531 67.859375 C 160.730469 68.183594 161.179688 68.542969 161.617188 68.941406 C 162.058594 69.339844 162.484375 69.777344 162.898438 70.246094 C 163.3125 70.714844 163.714844 71.21875 164.097656 71.753906 C 164.484375 72.289062 164.851562 72.855469 165.203125 73.453125 C 165.558594 74.050781 165.890625 74.679688 166.207031 75.332031 C 166.523438 75.984375 166.820312 76.664062 167.097656 77.367188 C 167.375 78.066406 167.628906 78.792969 167.863281 79.539062 C 168.097656 80.28125 168.3125 81.046875 168.503906 81.828125 C 168.695312 82.609375 168.859375 83.402344 169.007812 84.210938 C 169.152344 85.019531 169.269531 85.839844 169.367188 86.667969 C 169.464844 87.496094 169.539062 88.332031 169.585938 89.171875 C 169.636719 90.015625 169.660156 90.859375 169.660156 91.703125 Z M 169.660156 91.703125 " clip-rule="nonzero"/></clipPath><linearGradient x1="498.78147" gradientTransform="matrix(0.272911, 0, 0, 0.273868, 2.786872, -38.052656)" y1="477.70693" x2="612.528051" gradientUnits="userSpaceOnUse" y2="479.07273" id="bcc6f81ede"><stop stop-opacity="1" stop-color="rgb(10.198975%, 10.198975%, 10.198975%)" offset="0"/><stop stop-opacity="1" stop-color="rgb(10.295105%, 10.276794%, 10.266113%)" offset="0.015625"/><stop stop-opacity="1" stop-color="rgb(10.516357%, 10.458374%, 10.418701%)" offset="0.0198921"/><stop stop-opacity="1" stop-color="rgb(10.641479%, 10.560608%, 10.505676%)" offset="0.0234375"/><stop stop-opacity="1" stop-color="rgb(10.765076%, 10.661316%, 10.591125%)" offset="0.03125"/><stop stop-opacity="1" stop-color="rgb(11.013794%, 10.864258%, 10.76355%)" offset="0.0390625"/><stop stop-opacity="1" stop-color="rgb(11.262512%, 11.068726%, 10.935974%)" offset="0.046875"/><stop stop-opacity="1" stop-color="rgb(11.51123%, 11.271667%, 11.108398%)" offset="0.0546875"/><stop stop-opacity="1" stop-color="rgb(11.761475%, 11.474609%, 11.280823%)" offset="0.0625"/><stop stop-opacity="1" stop-color="rgb(12.010193%, 11.677551%, 11.453247%)" offset="0.0703125"/><stop stop-opacity="1" stop-color="rgb(12.258911%, 11.882019%, 11.625671%)" offset="0.078125"/><stop stop-opacity="1" stop-color="rgb(12.507629%, 12.084961%, 11.798096%)" offset="0.0859375"/><stop stop-opacity="1" stop-color="rgb(12.756348%, 12.287903%, 11.97052%)" offset="0.09375"/><stop stop-opacity="1" stop-color="rgb(13.005066%, 12.490845%, 12.142944%)" offset="0.101562"/><stop stop-opacity="1" stop-color="rgb(13.25531%, 12.695312%, 12.315369%)" offset="0.109375"/><stop stop-opacity="1" stop-color="rgb(13.504028%, 12.898254%, 12.487793%)" offset="0.117188"/><stop stop-opacity="1" stop-color="rgb(13.752747%, 13.101196%, 12.660217%)" offset="0.125"/><stop stop-opacity="1" stop-color="rgb(14.001465%, 13.305664%, 12.832642%)" offset="0.132813"/><stop stop-opacity="1" stop-color="rgb(14.250183%, 13.508606%, 13.005066%)" offset="0.140625"/><stop stop-opacity="1" stop-color="rgb(14.498901%, 13.711548%, 13.17749%)" offset="0.148438"/><stop stop-opacity="1" stop-color="rgb(14.749146%, 13.91449%, 13.349915%)" offset="0.15625"/><stop stop-opacity="1" stop-color="rgb(14.997864%, 14.118958%, 13.522339%)" offset="0.164062"/><stop stop-opacity="1" stop-color="rgb(15.246582%, 14.321899%, 13.694763%)" offset="0.171875"/><stop stop-opacity="1" stop-color="rgb(15.4953%, 14.524841%, 13.867188%)" offset="0.179687"/><stop stop-opacity="1" stop-color="rgb(15.744019%, 14.727783%, 14.039612%)" offset="0.1875"/><stop stop-opacity="1" stop-color="rgb(15.992737%, 14.932251%, 14.212036%)" offset="0.195313"/><stop stop-opacity="1" stop-color="rgb(16.242981%, 15.135193%, 14.38446%)" offset="0.203125"/><stop stop-opacity="1" stop-color="rgb(16.491699%, 15.338135%, 14.556885%)" offset="0.210938"/><stop stop-opacity="1" stop-color="rgb(16.740417%, 15.541077%, 14.729309%)" offset="0.21875"/><stop stop-opacity="1" stop-color="rgb(16.989136%, 15.745544%, 14.901733%)" offset="0.226562"/><stop stop-opacity="1" stop-color="rgb(17.237854%, 15.948486%, 15.074158%)" offset="0.234375"/><stop stop-opacity="1" stop-color="rgb(17.486572%, 16.151428%, 15.246582%)" offset="0.242187"/><stop stop-opacity="1" stop-color="rgb(17.736816%, 16.355896%, 15.419006%)" offset="0.25"/><stop stop-opacity="1" stop-color="rgb(17.985535%, 16.558838%, 15.591431%)" offset="0.257813"/><stop stop-opacity="1" stop-color="rgb(18.234253%, 16.76178%, 15.763855%)" offset="0.265625"/><stop stop-opacity="1" stop-color="rgb(18.482971%, 16.964722%, 15.936279%)" offset="0.273438"/><stop stop-opacity="1" stop-color="rgb(18.731689%, 17.169189%, 16.108704%)" offset="0.28125"/><stop stop-opacity="1" stop-color="rgb(18.980408%, 17.372131%, 16.281128%)" offset="0.289062"/><stop stop-opacity="1" stop-color="rgb(19.230652%, 17.575073%, 16.453552%)" offset="0.296875"/><stop stop-opacity="1" stop-color="rgb(19.47937%, 17.778015%, 16.625977%)" offset="0.304688"/><stop stop-opacity="1" stop-color="rgb(19.728088%, 17.982483%, 16.798401%)" offset="0.3125"/><stop stop-opacity="1" stop-color="rgb(19.976807%, 18.185425%, 16.970825%)" offset="0.320313"/><stop stop-opacity="1" stop-color="rgb(20.225525%, 18.388367%, 17.14325%)" offset="0.328125"/><stop stop-opacity="1" stop-color="rgb(20.474243%, 18.592834%, 17.315674%)" offset="0.335938"/><stop stop-opacity="1" stop-color="rgb(20.724487%, 18.795776%, 17.488098%)" offset="0.34375"/><stop stop-opacity="1" stop-color="rgb(20.973206%, 18.998718%, 17.660522%)" offset="0.351563"/><stop stop-opacity="1" stop-color="rgb(21.221924%, 19.20166%, 17.832947%)" offset="0.359375"/><stop stop-opacity="1" stop-color="rgb(21.470642%, 19.406128%, 18.005371%)" offset="0.367188"/><stop stop-opacity="1" stop-color="rgb(21.71936%, 19.60907%, 18.177795%)" offset="0.375"/><stop stop-opacity="1" stop-color="rgb(21.968079%, 19.812012%, 18.35022%)" offset="0.382813"/><stop stop-opacity="1" stop-color="rgb(22.218323%, 20.014954%, 18.522644%)" offset="0.390625"/><stop stop-opacity="1" stop-color="rgb(22.467041%, 20.219421%, 18.695068%)" offset="0.398438"/><stop stop-opacity="1" stop-color="rgb(22.715759%, 20.422363%, 18.867493%)" offset="0.40625"/><stop stop-opacity="1" stop-color="rgb(22.964478%, 20.625305%, 19.039917%)" offset="0.414062"/><stop stop-opacity="1" stop-color="rgb(23.213196%, 20.828247%, 19.212341%)" offset="0.421875"/><stop stop-opacity="1" stop-color="rgb(23.461914%, 21.032715%, 19.384766%)" offset="0.429688"/><stop stop-opacity="1" stop-color="rgb(23.712158%, 21.235657%, 19.55719%)" offset="0.4375"/><stop stop-opacity="1" stop-color="rgb(23.960876%, 21.438599%, 19.729614%)" offset="0.445313"/><stop stop-opacity="1" stop-color="rgb(24.209595%, 21.643066%, 19.902039%)" offset="0.453125"/><stop stop-opacity="1" stop-color="rgb(24.458313%, 21.846008%, 20.074463%)" offset="0.460938"/><stop stop-opacity="1" stop-color="rgb(24.707031%, 22.04895%, 20.246887%)" offset="0.46875"/><stop stop-opacity="1" stop-color="rgb(24.95575%, 22.251892%, 20.419312%)" offset="0.476563"/><stop stop-opacity="1" stop-color="rgb(25.205994%, 22.45636%, 20.591736%)" offset="0.484375"/><stop stop-opacity="1" stop-color="rgb(25.454712%, 22.659302%, 20.76416%)" offset="0.492188"/><stop stop-opacity="1" stop-color="rgb(25.70343%, 22.862244%, 20.936584%)" offset="0.5"/><stop stop-opacity="1" stop-color="rgb(25.952148%, 23.065186%, 21.109009%)" offset="0.507813"/><stop stop-opacity="1" stop-color="rgb(26.200867%, 23.269653%, 21.281433%)" offset="0.515625"/><stop stop-opacity="1" stop-color="rgb(26.449585%, 23.472595%, 21.453857%)" offset="0.523438"/><stop stop-opacity="1" stop-color="rgb(26.699829%, 23.675537%, 21.626282%)" offset="0.53125"/><stop stop-opacity="1" stop-color="rgb(26.948547%, 23.880005%, 21.798706%)" offset="0.539063"/><stop stop-opacity="1" stop-color="rgb(27.197266%, 24.082947%, 21.97113%)" offset="0.546875"/><stop stop-opacity="1" stop-color="rgb(27.445984%, 24.285889%, 22.143555%)" offset="0.554688"/><stop stop-opacity="1" stop-color="rgb(27.694702%, 24.488831%, 22.315979%)" offset="0.5625"/><stop stop-opacity="1" stop-color="rgb(27.94342%, 24.693298%, 22.488403%)" offset="0.570312"/><stop stop-opacity="1" stop-color="rgb(28.193665%, 24.89624%, 22.660828%)" offset="0.578125"/><stop stop-opacity="1" stop-color="rgb(28.442383%, 25.099182%, 22.833252%)" offset="0.585938"/><stop stop-opacity="1" stop-color="rgb(28.691101%, 25.302124%, 23.005676%)" offset="0.59375"/><stop stop-opacity="1" stop-color="rgb(28.939819%, 25.506592%, 23.178101%)" offset="0.601562"/><stop stop-opacity="1" stop-color="rgb(29.188538%, 25.709534%, 23.350525%)" offset="0.609375"/><stop stop-opacity="1" stop-color="rgb(29.437256%, 25.912476%, 23.522949%)" offset="0.617188"/><stop stop-opacity="1" stop-color="rgb(29.6875%, 26.115417%, 23.695374%)" offset="0.625"/><stop stop-opacity="1" stop-color="rgb(29.936218%, 26.319885%, 23.867798%)" offset="0.632812"/><stop stop-opacity="1" stop-color="rgb(30.184937%, 26.522827%, 24.040222%)" offset="0.640625"/><stop stop-opacity="1" stop-color="rgb(30.433655%, 26.725769%, 24.212646%)" offset="0.648438"/><stop stop-opacity="1" stop-color="rgb(30.682373%, 26.930237%, 24.385071%)" offset="0.65625"/><stop stop-opacity="1" stop-color="rgb(30.931091%, 27.133179%, 24.557495%)" offset="0.664062"/><stop stop-opacity="1" stop-color="rgb(31.181335%, 27.336121%, 24.729919%)" offset="0.671875"/><stop stop-opacity="1" stop-color="rgb(31.430054%, 27.539062%, 24.902344%)" offset="0.679688"/><stop stop-opacity="1" stop-color="rgb(31.678772%, 27.74353%, 25.074768%)" offset="0.6875"/><stop stop-opacity="1" stop-color="rgb(31.92749%, 27.946472%, 25.247192%)" offset="0.695312"/><stop stop-opacity="1" stop-color="rgb(32.176208%, 28.149414%, 25.419617%)" offset="0.703125"/><stop stop-opacity="1" stop-color="rgb(32.424927%, 28.352356%, 25.592041%)" offset="0.710937"/><stop stop-opacity="1" stop-color="rgb(32.675171%, 28.556824%, 25.764465%)" offset="0.71875"/><stop stop-opacity="1" stop-color="rgb(32.923889%, 28.759766%, 25.93689%)" offset="0.726562"/><stop stop-opacity="1" stop-color="rgb(33.172607%, 28.962708%, 26.109314%)" offset="0.734375"/><stop stop-opacity="1" stop-color="rgb(33.421326%, 29.167175%, 26.281738%)" offset="0.742188"/><stop stop-opacity="1" stop-color="rgb(33.670044%, 29.370117%, 26.454163%)" offset="0.75"/><stop stop-opacity="1" stop-color="rgb(33.918762%, 29.573059%, 26.626587%)" offset="0.757812"/><stop stop-opacity="1" stop-color="rgb(34.169006%, 29.776001%, 26.799011%)" offset="0.765625"/><stop stop-opacity="1" stop-color="rgb(34.417725%, 29.980469%, 26.971436%)" offset="0.773438"/><stop stop-opacity="1" stop-color="rgb(34.666443%, 30.183411%, 27.14386%)" offset="0.78125"/><stop stop-opacity="1" stop-color="rgb(34.915161%, 30.386353%, 27.316284%)" offset="0.789063"/><stop stop-opacity="1" stop-color="rgb(35.163879%, 30.589294%, 27.488708%)" offset="0.796875"/><stop stop-opacity="1" stop-color="rgb(35.412598%, 30.793762%, 27.661133%)" offset="0.804688"/><stop stop-opacity="1" stop-color="rgb(35.662842%, 30.996704%, 27.833557%)" offset="0.8125"/><stop stop-opacity="1" stop-color="rgb(35.91156%, 31.199646%, 28.005981%)" offset="0.820312"/><stop stop-opacity="1" stop-color="rgb(36.160278%, 31.402588%, 28.178406%)" offset="0.828125"/><stop stop-opacity="1" stop-color="rgb(36.408997%, 31.607056%, 28.35083%)" offset="0.835938"/><stop stop-opacity="1" stop-color="rgb(36.657715%, 31.809998%, 28.523254%)" offset="0.84375"/><stop stop-opacity="1" stop-color="rgb(36.906433%, 32.012939%, 28.695679%)" offset="0.851562"/><stop stop-opacity="1" stop-color="rgb(37.156677%, 32.217407%, 28.868103%)" offset="0.859375"/><stop stop-opacity="1" stop-color="rgb(37.405396%, 32.420349%, 29.040527%)" offset="0.867188"/><stop stop-opacity="1" stop-color="rgb(37.654114%, 32.623291%, 29.212952%)" offset="0.875"/><stop stop-opacity="1" stop-color="rgb(37.902832%, 32.826233%, 29.385376%)" offset="0.882812"/><stop stop-opacity="1" stop-color="rgb(38.15155%, 33.030701%, 29.5578%)" offset="0.890625"/><stop stop-opacity="1" stop-color="rgb(38.400269%, 33.233643%, 29.730225%)" offset="0.898438"/><stop stop-opacity="1" stop-color="rgb(38.650513%, 33.436584%, 29.902649%)" offset="0.90625"/><stop stop-opacity="1" stop-color="rgb(38.899231%, 33.639526%, 30.075073%)" offset="0.914062"/><stop stop-opacity="1" stop-color="rgb(39.147949%, 33.843994%, 30.247498%)" offset="0.921875"/><stop stop-opacity="1" stop-color="rgb(39.396667%, 34.046936%, 30.419922%)" offset="0.929688"/><stop stop-opacity="1" stop-color="rgb(39.645386%, 34.249878%, 30.592346%)" offset="0.9375"/><stop stop-opacity="1" stop-color="rgb(39.894104%, 34.454346%, 30.764771%)" offset="0.945312"/><stop stop-opacity="1" stop-color="rgb(40.144348%, 34.657288%, 30.937195%)" offset="0.953125"/><stop stop-opacity="1" stop-color="rgb(40.393066%, 34.860229%, 31.109619%)" offset="0.960937"/><stop stop-opacity="1" stop-color="rgb(40.641785%, 35.063171%, 31.282043%)" offset="0.96875"/><stop stop-opacity="1" stop-color="rgb(40.890503%, 35.267639%, 31.454468%)" offset="0.976562"/><stop stop-opacity="1" stop-color="rgb(41.139221%, 35.470581%, 31.626892%)" offset="0.980108"/><stop stop-opacity="1" stop-color="rgb(41.264343%, 35.572815%, 31.713867%)" offset="0.984375"/><stop stop-opacity="1" stop-color="rgb(41.387939%, 35.673523%, 31.799316%)" offset="0.992188"/><stop stop-opacity="1" stop-color="rgb(41.638184%, 35.876465%, 31.971741%)" offset="1"/></linearGradient></defs><g clip-path="url(#43abd234b3)"><path fill="#f2f2f2" d="M 66.570312 16.976562 C 42.238281 16.976562 22.511719 50.429688 22.511719 91.703125 C 22.53125 97.703125 22.972656 103.675781 23.835938 109.492188 L 23.835938 202.757812 L 112.964844 202.757812 L 112.964844 166.296875 C 113.289062 166.28125 113.613281 166.261719 113.9375 166.234375 C 114.703125 166.335938 115.472656 166.398438 116.238281 166.429688 C 117.292969 166.429688 118.34375 166.363281 119.394531 166.234375 C 120.160156 166.335938 120.929688 166.398438 121.699219 166.429688 C 122.75 166.429688 123.804688 166.363281 124.851562 166.234375 C 125.621094 166.335938 126.386719 166.398438 127.15625 166.429688 C 128.207031 166.429688 129.261719 166.363281 130.3125 166.234375 C 131.078125 166.335938 131.84375 166.398438 132.613281 166.429688 C 133.667969 166.429688 134.71875 166.363281 135.769531 166.234375 C 136.535156 166.335938 137.304688 166.398438 138.070312 166.429688 C 139.125 166.429688 140.175781 166.363281 141.226562 166.234375 C 141.992188 166.335938 142.761719 166.398438 143.53125 166.429688 C 144.582031 166.429688 145.636719 166.363281 146.6875 166.234375 C 147.453125 166.335938 148.21875 166.398438 148.988281 166.429688 C 173.320312 166.429688 193.042969 132.976562 193.042969 91.703125 C 193.042969 50.433594 173.320312 16.976562 148.988281 16.976562 C 147.933594 16.976562 146.882812 17.042969 145.832031 17.171875 C 145.066406 17.070312 144.296875 17.007812 143.53125 16.976562 C 142.476562 16.976562 141.421875 17.042969 140.375 17.171875 C 139.605469 17.070312 138.839844 17.007812 138.070312 16.976562 C 137.019531 16.976562 135.964844 17.042969 134.914062 17.171875 C 134.148438 17.070312 133.382812 17.007812 132.613281 16.976562 C 131.558594 16.976562 130.507812 17.042969 129.457031 17.171875 C 128.691406 17.070312 127.921875 17.007812 127.15625 16.976562 C 126.101562 16.976562 125.050781 17.042969 124 17.171875 C 123.234375 17.070312 122.464844 17.007812 121.695312 16.976562 C 120.644531 16.976562 119.589844 17.042969 118.539062 17.171875 C 117.773438 17.070312 117.007812 17.007812 116.238281 16.976562 C 115.1875 16.976562 114.132812 17.042969 113.082031 17.171875 C 112.316406 17.070312 111.550781 17.007812 110.78125 16.976562 C 109.726562 16.976562 108.675781 17.042969 107.625 17.171875 C 106.859375 17.070312 106.089844 17.007812 105.324219 16.976562 C 104.269531 16.976562 103.214844 17.042969 102.167969 17.171875 C 101.398438 17.070312 100.632812 17.007812 99.863281 16.976562 C 98.8125 16.976562 97.757812 17.042969 96.707031 17.171875 C 95.941406 17.070312 95.175781 17.007812 94.40625 16.976562 C 93.351562 16.976562 92.300781 17.042969 91.25 17.171875 C 90.484375 17.070312 89.714844 17.007812 88.949219 16.976562 C 87.894531 16.976562 86.84375 17.042969 85.792969 17.171875 C 85.027344 17.070312 84.257812 17.007812 83.492188 16.976562 C 82.4375 16.976562 81.382812 17.042969 80.332031 17.171875 C 79.566406 17.070312 78.800781 17.007812 78.03125 16.976562 C 76.980469 16.976562 75.925781 17.042969 74.875 17.171875 C 74.109375 17.070312 73.34375 17.007812 72.574219 16.976562 C 72.46875 16.980469 72.359375 16.988281 72.253906 16.996094 C 72.179688 16.988281 72.105469 16.980469 72.027344 16.976562 C 70.976562 16.976562 69.921875 17.042969 68.871094 17.171875 C 68.105469 17.070312 67.339844 17.007812 66.570312 16.976562 Z M 66.570312 16.976562 " fill-opacity="1" fill-rule="nonzero"/></g><g clip-path="url(#47a27a46b0)"><path fill="#ececec" d="M 198.503906 91.703125 C 198.503906 94.152344 198.429688 96.59375 198.289062 99.027344 C 198.148438 101.464844 197.9375 103.882812 197.65625 106.28125 C 197.375 108.683594 197.023438 111.054688 196.605469 113.394531 C 196.1875 115.738281 195.699219 118.039062 195.148438 120.300781 C 194.597656 122.5625 193.980469 124.769531 193.300781 126.929688 C 192.621094 129.089844 191.878906 131.183594 191.078125 133.21875 C 190.277344 135.253906 189.417969 137.21875 188.503906 139.109375 C 187.585938 141 186.617188 142.8125 185.597656 144.542969 C 184.578125 146.273438 183.511719 147.914062 182.394531 149.46875 C 181.28125 151.019531 180.121094 152.476562 178.921875 153.835938 C 177.722656 155.195312 176.488281 156.453125 175.214844 157.605469 C 173.941406 158.761719 172.640625 159.804688 171.304688 160.742188 C 169.972656 161.679688 168.617188 162.503906 167.234375 163.214844 C 165.855469 163.921875 164.457031 164.515625 163.042969 164.996094 C 161.625 165.472656 160.199219 165.832031 158.765625 166.070312 C 157.328125 166.3125 155.890625 166.429688 154.445312 166.429688 C 153.003906 166.429688 151.5625 166.3125 150.128906 166.070312 C 148.691406 165.832031 147.265625 165.472656 145.851562 164.996094 C 144.4375 164.515625 143.039062 163.921875 141.65625 163.214844 C 140.277344 162.503906 138.917969 161.679688 137.585938 160.742188 C 136.253906 159.804688 134.949219 158.761719 133.679688 157.605469 C 132.40625 156.453125 131.167969 155.195312 129.96875 153.835938 C 128.769531 152.476562 127.613281 151.019531 126.496094 149.46875 C 125.382812 147.914062 124.3125 146.273438 123.292969 144.542969 C 122.273438 142.8125 121.304688 141 120.390625 139.109375 C 119.476562 137.21875 118.617188 135.253906 117.816406 133.21875 C 117.011719 131.183594 116.273438 129.089844 115.59375 126.929688 C 114.914062 124.769531 114.296875 122.5625 113.742188 120.300781 C 113.191406 118.039062 112.707031 115.738281 112.289062 113.394531 C 111.867188 111.054688 111.519531 108.683594 111.238281 106.28125 C 110.957031 103.882812 110.742188 101.464844 110.601562 99.027344 C 110.460938 96.59375 110.390625 94.152344 110.390625 91.703125 C 110.390625 89.253906 110.460938 86.8125 110.601562 84.378906 C 110.742188 81.941406 110.957031 79.523438 111.238281 77.125 C 111.519531 74.722656 111.867188 72.351562 112.289062 70.011719 C 112.707031 67.667969 113.191406 65.367188 113.742188 63.105469 C 114.296875 60.84375 114.914062 58.636719 115.59375 56.476562 C 116.273438 54.320312 117.011719 52.222656 117.816406 50.1875 C 118.617188 48.152344 119.476562 46.1875 120.390625 44.296875 C 121.304688 42.40625 122.273438 40.59375 123.292969 38.863281 C 124.3125 37.132812 125.382812 35.492188 126.496094 33.9375 C 127.613281 32.386719 128.769531 30.929688 129.96875 29.570312 C 131.167969 28.210938 132.40625 26.953125 133.679688 25.800781 C 134.949219 24.644531 136.253906 23.601562 137.585938 22.664062 C 138.917969 21.726562 140.277344 20.902344 141.65625 20.191406 C 143.039062 19.484375 144.4375 18.890625 145.851562 18.410156 C 147.265625 17.933594 148.691406 17.574219 150.128906 17.335938 C 151.5625 17.09375 153.003906 16.976562 154.445312 16.976562 C 155.890625 16.976562 157.328125 17.09375 158.765625 17.335938 C 160.199219 17.574219 161.625 17.933594 163.042969 18.410156 C 164.457031 18.890625 165.855469 19.484375 167.234375 20.191406 C 168.617188 20.902344 169.972656 21.726562 171.304688 22.664062 C 172.640625 23.601562 173.941406 24.644531 175.214844 25.800781 C 176.488281 26.953125 177.722656 28.210938 178.921875 29.570312 C 180.121094 30.929688 181.28125 32.386719 182.394531 33.9375 C 183.511719 35.492188 184.578125 37.132812 185.597656 38.863281 C 186.617188 40.59375 187.585938 42.40625 188.503906 44.296875 C 189.417969 46.1875 190.277344 48.152344 191.078125 50.1875 C 191.878906 52.222656 192.621094 54.320312 193.300781 56.476562 C 193.980469 58.636719 194.597656 60.84375 195.148438 63.105469 C 195.699219 65.367188 196.1875 67.667969 196.605469 70.011719 C 197.023438 72.351562 197.375 74.722656 197.65625 77.125 C 197.9375 79.523438 198.148438 81.941406 198.289062 84.378906 C 198.429688 86.8125 198.503906 89.253906 198.503906 91.703125 Z M 198.503906 91.703125 " fill-opacity="1" fill-rule="nonzero"/></g><g clip-path="url(#17eb30300d)"><path stroke-linecap="butt" transform="matrix(0.272911, 0, 0, 0.273868, 2.786872, -38.052647)" fill="none" stroke-linejoin="miter" d="M 717.145918 473.789915 C 717.145918 482.732987 716.873966 491.647532 716.358688 500.53355 C 715.84341 509.433832 715.070494 518.262797 714.039938 527.020446 C 713.009382 535.792358 711.721188 544.450164 710.189668 552.993864 C 708.658148 561.551827 706.868988 569.952894 704.850817 578.211329 C 702.832646 586.469763 700.571149 594.528512 698.080639 602.416101 C 695.59013 610.30369 692.870608 617.948804 689.936387 625.379969 C 687.002166 632.811134 683.853246 639.985559 680.503941 646.888983 C 677.140322 653.792406 673.59063 660.410565 669.854866 666.729194 C 666.119102 673.047824 662.211578 679.038398 658.117982 684.71518 C 654.0387 690.377699 649.787658 695.697899 645.393483 700.661518 C 640.999308 705.625137 636.476314 710.21791 631.810188 714.425575 C 627.144061 718.647504 622.377741 722.455797 617.482602 725.878983 C 612.601776 729.302168 607.63507 732.311718 602.568172 734.907634 C 597.515587 737.489286 592.391435 739.657303 587.21003 741.411686 C 582.014313 743.151805 576.789968 744.464026 571.536997 745.334086 C 566.269713 746.218408 561.002428 746.646307 555.706518 746.646307 C 550.42492 746.646307 545.143323 746.218408 539.890352 745.334086 C 534.623067 744.464026 529.398723 743.151805 524.217318 741.411686 C 519.035914 739.657303 513.911762 737.489286 508.844864 734.907634 C 503.792278 732.311718 498.81126 729.302168 493.930434 725.878983 C 489.049608 722.455797 484.268975 718.647504 479.617161 714.425575 C 474.951034 710.21791 470.413727 705.625137 466.019552 700.661518 C 461.625378 695.697899 457.388649 690.377699 453.295053 684.71518 C 449.21577 679.038398 445.293934 673.047824 441.55817 666.729194 C 437.822405 660.410565 434.272714 653.792406 430.923408 646.888983 C 427.574102 639.985559 424.425182 632.811134 421.490961 625.379969 C 418.542427 617.948804 415.837219 610.30369 413.346709 602.416101 C 410.8562 594.528512 408.594703 586.469763 406.562218 578.211329 C 404.544047 569.952894 402.769201 561.551827 401.237681 552.993864 C 399.691847 544.450164 398.417966 535.792358 397.387411 527.020446 C 396.356855 518.262797 395.569625 509.433832 395.054347 500.53355 C 394.539069 491.647532 394.28143 482.732987 394.28143 473.789915 C 394.28143 464.846844 394.539069 455.932299 395.054347 447.04628 C 395.569625 438.145999 396.356855 429.317033 397.387411 420.559384 C 398.417966 411.787472 399.691847 403.129666 401.237681 394.585966 C 402.769201 386.028003 404.544047 377.626936 406.562218 369.368502 C 408.594703 361.110067 410.8562 353.051319 413.346709 345.163729 C 415.837219 337.290403 418.542427 329.631026 421.490961 322.199861 C 424.425182 314.768697 427.574102 307.594271 430.923408 300.690847 C 434.272714 293.787424 437.822405 287.169266 441.55817 280.850636 C 445.293934 274.532007 449.21577 268.541433 453.295053 262.86465 C 457.388649 257.202131 461.625378 251.881931 466.019552 246.918312 C 470.413727 241.954694 474.951034 237.36192 479.617161 233.154255 C 484.268975 228.932327 489.049608 225.124033 493.930434 221.700848 C 498.81126 218.277662 503.792278 215.268112 508.844864 212.672197 C 513.911762 210.090544 519.035914 207.922527 524.217318 206.168145 C 529.398723 204.428025 534.623067 203.115804 539.890352 202.245745 C 545.143323 201.361422 550.42492 200.933524 555.706518 200.933524 C 561.002428 200.933524 566.269713 201.361422 571.536997 202.245745 C 576.789968 203.115804 582.014313 204.428025 587.21003 206.168145 C 592.391435 207.922527 597.515587 210.090544 602.568172 212.672197 C 607.63507 215.268112 612.601776 218.277662 617.482602 221.700848 C 622.377741 225.124033 627.144061 228.932327 631.810188 233.154255 C 636.476314 237.36192 640.999308 241.954694 645.393483 246.918312 C 649.787658 251.881931 654.0387 257.202131 658.117982 262.86465 C 662.211578 268.541433 666.119102 274.532007 669.854866 280.850636 C 673.59063 287.169266 677.140322 293.787424 680.503941 300.690847 C 683.853246 307.594271 687.002166 314.768697 689.936387 322.199861 C 692.870608 329.631026 695.59013 337.290403 698.080639 345.163729 C 700.571149 353.051319 702.832646 361.110067 704.850817 369.368502 C 706.868988 377.626936 708.658148 386.028003 710.189668 394.585966 C 711.721188 403.129666 713.009382 411.787472 714.039938 420.559384 C 715.070494 429.317033 715.84341 438.145999 716.358688 447.04628 C 716.873966 455.932299 717.145918 464.846844 717.145918 473.789915 Z M 717.145918 473.789915 " stroke="#e6e6e6" stroke-width="1" stroke-opacity="1" stroke-miterlimit="4"/></g><g clip-path="url(#ff836af261)"><g clip-path="url(#c1189e80c7)"><path fill="url(#bcc6f81ede)" d="M 139.230469 65.894531 L 139.230469 117.511719 L 169.660156 117.511719 L 169.660156 65.894531 Z M 139.230469 65.894531 " fill-rule="nonzero"/></g></g></svg>