<svg xmlns="http://www.w3.org/2000/svg" xmlns:xlink="http://www.w3.org/1999/xlink" width="300" zoomAndPan="magnify" viewBox="0 0 224.87999 225" height="300" preserveAspectRatio="xMidYMid meet" version="1.0"><defs><clipPath id="94bc3b7274"><path d="M 42 12.921875 L 171 12.921875 L 171 212 L 42 212 Z M 42 12.921875 " clip-rule="nonzero"/></clipPath><clipPath id="09359d7bee"><path d="M 113 12.921875 L 171 12.921875 L 171 211 L 113 211 Z M 113 12.921875 " clip-rule="nonzero"/></clipPath></defs><path fill="#f25555" d="M 107.878906 211.207031 C 76.546875 212.296875 44.480469 192.335938 38.945312 156.820312 C 35.0625 131.941406 43.582031 104.980469 55.371094 83.292969 C 61.363281 72.269531 68.648438 61.988281 76.964844 52.589844 C 70.582031 60.726562 64.902344 69.445312 60.070312 78.664062 C 48.28125 101.136719 39.761719 129.070312 43.640625 154.851562 C 48.898438 189.816406 78.109375 210.226562 107.878906 211.207031 Z M 107.878906 211.207031 " fill-opacity="1" fill-rule="nonzero"/><g clip-path="url(#94bc3b7274)"><path fill="#da3831" d="M 164.152344 174.429688 C 163.660156 175.449219 163.128906 176.472656 162.574219 177.5 C 162.179688 178.222656 161.769531 178.941406 161.339844 179.671875 C 160.921875 180.375 160.488281 181.082031 160.042969 181.785156 C 150.425781 196.921875 136.273438 205.929688 120.984375 209.484375 L 120.976562 209.484375 C 118.429688 210.078125 115.851562 210.519531 113.257812 210.8125 L 113.25 210.8125 C 111.464844 211.011719 109.667969 211.148438 107.878906 211.207031 C 78.109375 210.226562 48.898438 189.816406 43.640625 154.851562 C 39.761719 129.070312 48.28125 101.136719 60.070312 78.664062 C 64.902344 69.445312 70.582031 60.726562 76.964844 52.589844 C 88.40625 39.636719 101.78125 28.359375 116.363281 19.105469 C 119.746094 16.960938 123.179688 14.925781 126.679688 13.003906 C 126.730469 12.980469 126.777344 12.953125 126.832031 12.921875 L 126.9375 13.167969 C 126.34375 16.140625 125.980469 19.082031 125.820312 21.992188 C 122.851562 76 190.003906 120.769531 164.152344 174.429688 Z M 164.152344 174.429688 " fill-opacity="1" fill-rule="nonzero"/></g><g clip-path="url(#09359d7bee)"><path fill="#b71a2d" d="M 164.152344 174.429688 C 163.664062 175.449219 163.136719 176.472656 162.574219 177.5 C 162.179688 178.222656 161.769531 178.941406 161.339844 179.671875 C 160.921875 180.375 160.488281 181.082031 160.042969 181.785156 C 150.425781 196.921875 136.273438 205.929688 120.984375 209.484375 L 120.976562 209.484375 C 118.429688 210.078125 115.851562 210.519531 113.257812 210.8125 C 127.902344 206.878906 141.382812 197.691406 150.648438 182.617188 C 186.152344 124.878906 112.773438 77.75 126.679688 13.003906 C 126.730469 12.980469 126.777344 12.953125 126.832031 12.921875 L 126.9375 13.167969 C 126.34375 16.140625 125.980469 19.082031 125.820312 21.992188 C 122.851562 76 190.003906 120.769531 164.152344 174.429688 Z M 164.152344 174.429688 " fill-opacity="1" fill-rule="nonzero"/></g><path fill="#490c19" d="M 82.496094 140.960938 C 80.703125 142.480469 79.542969 145.019531 79.335938 147.207031 C 78.808594 152.84375 84.914062 157.253906 89.875 153.859375 C 92.046875 152.375 93.257812 149.644531 93.046875 147.019531 C 92.777344 143.707031 90.015625 140.03125 86.558594 139.628906 C 85.007812 139.441406 83.628906 139.996094 82.496094 140.960938 Z M 82.496094 140.960938 " fill-opacity="1" fill-rule="nonzero"/><path fill="#ffffff" d="M 82.054688 141.804688 C 81.496094 142.28125 81.132812 143.070312 81.074219 143.75 C 80.910156 145.5 82.804688 146.875 84.351562 145.816406 C 85.023438 145.351562 85.402344 144.507812 85.335938 143.691406 C 85.253906 142.664062 84.398438 141.519531 83.324219 141.394531 C 82.835938 141.332031 82.40625 141.507812 82.054688 141.804688 Z M 82.054688 141.804688 " fill-opacity="1" fill-rule="nonzero"/><path fill="#490c19" d="M 126.109375 140.960938 C 127.902344 142.480469 129.0625 145.019531 129.269531 147.207031 C 129.796875 152.84375 123.691406 157.253906 118.730469 153.859375 C 116.554688 152.375 115.347656 149.644531 115.558594 147.019531 C 115.828125 143.707031 118.589844 140.03125 122.046875 139.628906 C 123.597656 139.441406 124.976562 139.996094 126.109375 140.960938 Z M 126.109375 140.960938 " fill-opacity="1" fill-rule="nonzero"/><path fill="#7f0b1f" d="M 111.359375 164.375 C 111.570312 168.332031 108.125 172.113281 104.167969 172.265625 C 100.210938 172.417969 96.476562 168.921875 96.382812 164.957031 C 100.660156 165.128906 107.074219 164.207031 111.359375 164.375 Z M 111.359375 164.375 " fill-opacity="1" fill-rule="nonzero"/><path fill="#ffffff" d="M 117.964844 141.804688 C 117.40625 142.28125 117.042969 143.070312 116.984375 143.75 C 116.820312 145.5 118.71875 146.875 120.261719 145.816406 C 120.9375 145.351562 121.3125 144.507812 121.246094 143.691406 C 121.164062 142.664062 120.308594 141.519531 119.234375 141.394531 C 118.746094 141.332031 118.316406 141.507812 117.964844 141.804688 Z M 117.964844 141.804688 " fill-opacity="1" fill-rule="nonzero"/></svg>